<svg xmlns="http://www.w3.org/2000/svg" viewBox="0 0 19.65 19.65"><defs><style>.cls-1{fill:#fff;}.cls-2{fill:none;stroke:#fff;stroke-miterlimit:10;stroke-width:0.75px;}</style></defs><g id="Capa_2" data-name="Capa 2"><g id="INICIO_II" data-name="INICIO II"><path class="cls-1" d="M12.26,6.62h-.77a2.22,2.22,0,0,0-.37,0,.66.66,0,0,0-.57.59c0,.25,0,.51-.06.77,0,.09.06.08.11.08h1.66v.47c0,.44,0,.88,0,1.32,0,.09,0,.13-.13.13h-1.5c-.1,0-.14,0-.14.13,0,1.83,0,3.66,0,5.49a.28.28,0,0,1,0,.09H8v-.15c0-1.8,0-3.61,0-5.41C8,10,8,10,7.83,10H6.68c-.21,0-.21,0-.21-.19,0-.54,0-1.08,0-1.62,0-.09,0-.11.12-.11H7.85C8,8.1,8,8.09,8,8c0-.39,0-.77,0-1.16A2.19,2.19,0,0,1,9.65,4.9a4.1,4.1,0,0,1,1-.15h1.44c.1,0,.14,0,.14.14,0,.55,0,1.1,0,1.65C12.27,6.56,12.26,6.59,12.26,6.62Z"/><circle class="cls-2" cx="9.83" cy="9.83" r="9.45"/></g></g></svg>