<svg xmlns="http://www.w3.org/2000/svg" viewBox="0 0 19.65 19.65"><defs><style>.cls-1,.cls-2{fill:none;stroke:#fff;stroke-miterlimit:10;}.cls-2{stroke-width:0.75px;}</style></defs><g id="Capa_2" data-name="Capa 2"><g id="INICIO_II" data-name="INICIO II"><path class="cls-1" d="M5.24,9.79,5.3,7.48a2.64,2.64,0,0,1,.28-1.11,1.85,1.85,0,0,1,1.3-1,7.93,7.93,0,0,1,1.54-.11c1,0,2.05,0,3.08,0a5.89,5.89,0,0,1,1.18.11,1.79,1.79,0,0,1,1.4,1.19,4.45,4.45,0,0,1,.19,1.45c0,.87,0,1.74,0,2.62,0,.62,0,1.24-.08,1.85a1.87,1.87,0,0,1-.95,1.5,1.79,1.79,0,0,1-.78.25c-.52,0-1.05.06-1.59.07-.7,0-1.41,0-2.11,0s-1.13,0-1.69-.07a1.79,1.79,0,0,1-1.49-1,2.32,2.32,0,0,1-.28-1.08c0-.65,0-1.3,0-2,0-.16,0-.33,0-.49Z"/><circle class="cls-2" cx="9.82" cy="9.82" r="9.45"/><circle class="cls-1" cx="9.76" cy="10.27" r="2.43"/></g></g></svg>